<?xml version="1.0" standalone="no"?>
<!DOCTYPE svg PUBLIC "-//W3C//DTD SVG 20010904//EN"
 "http://www.w3.org/TR/2001/REC-SVG-20010904/DTD/svg10.dtd">
<svg version="1.0" xmlns="http://www.w3.org/2000/svg"
 width="600.000000pt" height="600.000000pt" viewBox="0 0 600.000000 600.000000"
 preserveAspectRatio="xMidYMid meet">
<metadata>
Created by potrace 1.11, written by Peter Selinger 2001-2013
</metadata>
<g transform="translate(0.000000,600.000000) scale(0.100000,-0.100000)"
fill="#000000" stroke="none">
<path d="M0 3000 l0 -3000 3000 0 3000 0 0 3000 0 3000 -3000 0 -3000 0 0
-3000z m5800 0 l0 -2800 -2800 0 -2800 0 0 2800 0 2800 2800 0 2800 0 0 -2800z"/>
<path d="M2335 5548 c-3 -18 -23 -139 -44 -268 -36 -229 -38 -235 -62 -239
-13 -2 -311 -36 -661 -75 -351 -40 -641 -75 -644 -79 -8 -8 -79 -855 -72 -862
3 -3 290 38 638 90 348 52 636 95 640 95 4 0 6 -19 4 -42 -2 -24 -6 -90 -10
-148 l-6 -105 -116 -49 c-400 -167 -604 -296 -812 -512 -429 -445 -681 -1035
-657 -1538 18 -373 152 -683 368 -849 341 -261 985 -301 1579 -99 623 212
1174 641 1909 1485 79 91 96 106 104 91 14 -25 1 -478 -17 -614 -22 -158 -53
-310 -83 -405 -31 -99 -116 -275 -187 -389 -30 -47 -54 -86 -53 -87 1 0 232
-49 512 -108 421 -89 512 -106 521 -95 18 22 109 307 148 461 43 171 88 395
112 558 22 149 25 510 6 665 -57 449 -217 794 -503 1079 -154 155 -318 269
-544 377 -317 153 -602 211 -1084 221 l-264 6 7 106 c4 58 8 106 9 107 2 2
1856 44 1925 44 l32 0 0 380 0 380 -312 -1 c-172 0 -594 -4 -938 -8 -344 -5
-627 -7 -629 -5 -4 3 43 375 55 437 l6 27 -436 0 -435 0 -6 -32z m1265 -2256
c101 -24 307 -90 314 -100 10 -17 -246 -404 -364 -550 -73 -91 -473 -492 -490
-492 -10 0 -20 349 -23 800 l-2 355 40 7 c22 3 130 5 240 3 157 -2 218 -7 285
-23z m-1530 -867 c5 -165 17 -409 26 -542 9 -133 14 -249 11 -257 -10 -25
-227 -59 -342 -53 -120 6 -179 25 -239 78 -159 141 -153 415 19 775 80 166
220 330 407 474 l93 72 7 -123 c4 -68 12 -259 18 -424z"/>
</g>
</svg>
